<?xml version="1.0" encoding="UTF-8" standalone="no"?>
<svg
   xmlns:dc="http://purl.org/dc/elements/1.1/"
   xmlns:cc="http://creativecommons.org/ns#"
   xmlns:rdf="http://www.w3.org/1999/02/22-rdf-syntax-ns#"
   xmlns:svg="http://www.w3.org/2000/svg"
   xmlns="http://www.w3.org/2000/svg"
   xmlns:xlink="http://www.w3.org/1999/xlink"
   id="svg8"
   version="1.1"
   viewBox="0 0 210 164"
   height="164mm"
   width="210mm">
  <defs
     id="defs2">
    <path
       id="c1FIbBKHn"
       d="m 441.41,231.22 c 0,68.99 -56.71,125 -126.55,125 -69.84,0 -126.54,-56.01 -126.54,-125 0,-68.99 56.7,-125 126.54,-125 69.84,0 126.55,56.01 126.55,125 z" />
    <path
       id="a1AQj8XbSf"
       d="m 374.27,190.38 v -2.97 0 z" />
    <path
       id="a41zRWiExy"
       d="m 255.38,261.7 h 34.74 v -70.8 h -34.4 v -1.4 l -17.5,-36.25 h 123.96 v 37.65 h -34.4 v 70.8 h 34.06 l 18.19,37.65 H 237.88 l 17.5,-36.25 z m 106.8,-108.45 h 18.19 l -18.19,37.65 z" />
  </defs>
  <metadata
     id="metadata5">
    <rdf:RDF>
      <cc:Work
         rdf:about="">
        <dc:format>image/svg+xml</dc:format>
        <dc:type
           rdf:resource="http://purl.org/dc/dcmitype/StillImage" />
        <dc:title></dc:title>
      </cc:Work>
    </rdf:RDF>
  </metadata>
  <g
     style="display:none"
     transform="translate(0,-133)"
     id="layer1">
    <g
       id="layer1-3"
       transform="translate(-144.5759,189.93303)">
      <g
         id="g49"
         transform="matrix(0.26458333,0,0,0.26458333,-6.2008886,1.4778047)">
        <g
           transform="translate(-389.91889,-292.94424)"
           id="g47">
          <g
             style="stroke:#999999;stroke-width:3;stroke-miterlimit:4;stroke-dasharray:none"
             id="g17">
            <use
               id="use15"
               xlink:href="#c1FIbBKHn"
               style="opacity:1;fill:#aae691;fill-opacity:1;stroke:#999999;stroke-width:3;stroke-miterlimit:4;stroke-dasharray:none"
               x="0"
               y="0"
               width="100%"
               height="100%" />
          </g>
          <g
             id="g21">
            <use
               id="use19"
               xlink:href="#a1AQj8XbSf"
               style="opacity:1;fill:#95b4d7;fill-opacity:1"
               x="0"
               y="0"
               width="100%"
               height="100%" />
          </g>
          <g
             id="g45">
            <g
               id="g41">
              <filter
                 primitiveUnits="userSpaceOnUse"
                 filterUnits="userSpaceOnUse"
                 height="192.11"
                 width="188.49001"
                 y="135.25"
                 x="219.88"
                 id="shadow3511308">
                <feFlood
                   id="feFlood23" />
                <feComposite
                   id="feComposite25"
                   operator="in"
                   in2="SourceAlpha" />
                <feGaussianBlur
                   id="feGaussianBlur27"
                   stdDeviation="1" />
                <feOffset
                   id="feOffset29"
                   result="afterOffset"
                   dy="10"
                   dx="10" />
                <feFlood
                   id="feFlood31"
                   flood-opacity="0.5"
                   flood-color="#000000" />
                <feComposite
                   id="feComposite33"
                   operator="in"
                   in2="afterOffset" />
                <feMorphology
                   id="feMorphology35"
                   radius="1"
                   operator="dilate" />
                <feComposite
                   id="feComposite37"
                   operator="out"
                   in2="SourceAlpha" />
              </filter>
              <path
                 id="aHS706JaV"
                 d="m 255.38,261.7 h 34.74 v -70.8 h -34.4 v -1.4 l -17.5,-36.25 h 123.96 v 37.65 h -34.4 v 70.8 h 34.06 l 18.19,37.65 H 237.88 l 17.5,-36.25 z m 106.8,-108.45 h 18.19 l -18.19,37.65 z"
                 style="fill:#ffffff;fill-opacity:1;filter:url(#shadow3511308)" />
            </g>
            <use
               id="use43"
               xlink:href="#a41zRWiExy"
               style="opacity:1;fill:#f3f3f3;fill-opacity:1"
               x="0"
               y="0"
               width="100%"
               height="100%" />
          </g>
        </g>
      </g>
    </g>
  </g>
  <g
     transform="translate(0,-133)"
     style="display:inline"
     id="layer5">
    <g
       id="g7616"
       transform="matrix(0.26458333,0,0,0.26458333,-150.77679,191.41083)">
      <use
         id="use7598"
         xlink:href="#g47"
         transform="matrix(0.74161394,0.94509177,-0.94509177,0.74161394,1291.4576,133.41562)"
         x="0"
         y="0"
         width="100%"
         height="100%" />
      <use
         id="use7594"
         xlink:href="#g47"
         transform="matrix(0.86011852,-0.0995549,0.0995549,0.86011852,1272.836,-55.336594)"
         x="0"
         y="0"
         width="100%"
         height="100%" />
      <use
         id="use7600"
         xlink:href="#g47"
         transform="matrix(1.1737828,-0.11746631,0.11746631,1.1737828,1203.4145,116.51158)"
         x="0"
         y="0"
         width="100%"
         height="100%" />
      <use
         id="use7596"
         xlink:href="#g47"
         transform="matrix(0.75734054,0.42114347,-0.42114347,0.75734054,1002.4002,95.120843)"
         x="0"
         y="0"
         width="100%"
         height="100%" />
      <use
         id="use7586"
         xlink:href="#g47"
         transform="matrix(0.93366186,1.0062837,-1.0062837,0.93366186,1287.0782,407.00395)"
         x="0"
         y="0"
         width="100%"
         height="100%" />
      <use
         id="use7592"
         xlink:href="#g47"
         transform="matrix(0.57319242,0.39342366,-0.39342366,0.57319242,800.19074,289.14156)"
         x="0"
         y="0"
         width="100%"
         height="100%" />
      <use
         id="use7604"
         xlink:href="#g47"
         transform="matrix(0.75799665,-0.04747975,0.04747975,0.75799665,990.92966,207.9452)"
         x="0"
         y="0"
         width="100%"
         height="100%" />
      <use
         id="use7588"
         xlink:href="#g47"
         transform="matrix(0.93062093,-1.0324256,1.0324256,0.93062093,1197.0674,260.07769)"
         x="0"
         y="0"
         width="100%"
         height="100%" />
      <use
         id="use7590"
         xlink:href="#g47"
         transform="matrix(0.52006011,0.36398302,-0.36398302,0.52006011,736.38787,419.31826)"
         x="0"
         y="0"
         width="100%"
         height="100%" />
      <use
         id="use7602"
         xlink:href="#g47"
         transform="matrix(0.99048144,-0.08309951,0.08309951,0.99048144,935.6923,386.98069)"
         x="0"
         y="0"
         width="100%"
         height="100%" />
    </g>
  </g>
</svg>
